<svg xmlns="http://www.w3.org/2000/svg" xmlns:xlink="http://www.w3.org/1999/xlink" version="1.1" x="0px" y="0px" viewBox="0 0 56 69.95125" style="enable-background:new 0 0 56 55.961;" xml:space="preserve"><g><g><path d="M13.09,40.387c-0.088-0.182-0.17-0.365-0.246-0.549c-0.729,3.022-1.47,4.731-1.787,5.383l0.612,5.513    c0.589,0.426,1.191,0.834,1.813,1.214C14.554,46.333,13.276,41.098,13.09,40.387z"/><path d="M35.113,0.943c-0.275,0.55-0.551,1.066-0.826,1.553l0.66,3.961c1.392,0.977,6.742,4.672,9.264,5.581    c0.836,0.036,4.285,0.346,6.657,2.967c1.739,1.922,2.47,4.588,2.175,7.928c0.215,0.759,0.832,3.374,0.035,6.098    c0.288,0.927,1.12,3.786,1.661,7.407c0.837-2.654,1.291-5.477,1.291-8.404C56.03,15.04,47.134,4.088,35.113,0.943z"/><path d="M27.464,5.985c0.017,0.006,0.034,0.012,0.05,0.018c0.178,0.059,0.351,0.092,0.516,0.092s0.338-0.033,0.516-0.092    c0.016-0.005,0.033-0.012,0.05-0.018c0.613-0.216,1.132-0.676,1.578-1.135c0.674-0.694,1.24-1.491,1.756-2.307    c0.416-0.657,0.831-1.336,1.159-2.042c-3.334-0.619-6.782-0.617-10.115,0.004c0.924,1.759,1.979,3.697,3.574,4.946    C26.826,5.67,27.129,5.866,27.464,5.985z"/><path d="M51.081,28.716c0.759-2.276,0.223-4.573,0.05-5.197c-0.552-0.645-1.527-1.486-2.143-1.486c-0.552,0-1-0.448-1-1    s0.448-1,1-1c0.751,0,1.474,0.341,2.091,0.763c-0.119-1.839-0.682-3.332-1.693-4.45c-1.916-2.116-4.839-2.297-5.292-2.312    c-0.529,0.076-1.901,0.442-2.146,1.279c-0.127,0.437-0.526,0.719-0.959,0.72c-0.093,0-0.188-0.013-0.281-0.041    c-0.53-0.155-0.834-0.711-0.679-1.241c0.243-0.83,0.794-1.408,1.407-1.813c-2.628-1.405-5.888-3.625-7.293-4.604l-0.405,0.405    c-0.195,0.195-0.451,0.293-0.707,0.293s-0.512-0.098-0.707-0.293c-0.391-0.391-0.391-1.023,0-1.414l0.636-0.636l-0.283-1.695    c-0.077,0.102-0.153,0.19-0.23,0.287c-0.085,0.107-0.171,0.219-0.256,0.32c-0.144,0.172-0.287,0.33-0.431,0.484    c-0.012,0.013-0.025,0.027-0.037,0.041c-2.479,2.64-4.907,2.64-7.385,0c-0.013-0.013-0.025-0.027-0.038-0.041    c-0.143-0.154-0.287-0.312-0.43-0.484c-0.085-0.101-0.171-0.213-0.256-0.32c-0.077-0.097-0.153-0.185-0.23-0.287l-0.283,1.695    l0.636,0.636c0.391,0.391,0.391,1.023,0,1.414c-0.195,0.195-0.451,0.293-0.707,0.293s-0.512-0.098-0.707-0.293l-0.405-0.405    c-1.487,1.036-5.053,3.463-7.746,4.84c0.583,0.635,0.802,1.354,0.816,1.83c0.016,0.552-0.419,1.012-0.971,1.028    c-0.01,0-0.02,0-0.029,0c-0.531,0-0.97-0.416-0.998-0.947c-0.014-0.132-0.139-0.726-1.109-1.047    c-0.663,0.038-3.417,0.317-5.219,2.321c-1.003,1.116-1.563,2.605-1.681,4.437c0.617-0.422,1.34-0.763,2.091-0.763    c0.552,0,1,0.448,1,1s-0.448,1-1,1c-0.621,0-1.593,0.84-2.142,1.484c-0.17,0.624-0.706,2.939,0.048,5.2    c0.068,0.205,0.068,0.426,0,0.631c-0.017,0.052-1.703,5.2-2.074,11.028c1.616,3.275,3.853,6.188,6.556,8.589l-0.425-3.822    c-0.023-0.209,0.02-0.421,0.124-0.604c0.017-0.03,1.867-3.422,2.87-11.573v-2.533c-3.315-3.637-1.291-7.524,0.293-9.107    c0.39-0.391,1.024-0.391,1.414,0c0.39,0.39,0.391,1.021,0.002,1.412c-0.332,0.338-3.052,3.299-0.163,6.406    c6.454,1.808,10.602,0.953,11.996-2.487c0.208-0.513,0.791-0.76,1.302-0.551c0.512,0.208,0.759,0.791,0.551,1.302    c-0.791,1.953-2.841,4.647-8.118,4.647c-1.484,0-3.24-0.23-5.277-0.732c0,0,0,1.709-0.005,1.736c0,0.01,0.004,0.019,0.004,0.029    c-0.088,1.583-0.235,4.234,0.896,6.497c0.028,0.056,0.05,0.114,0.067,0.174c0.078,0.272,1.805,6.5,0.327,13.209    c0.15,0.077,0.298,0.156,0.45,0.231c0.132,0.064,0.265,0.126,0.397,0.188c0.296,0.139,0.593,0.276,0.894,0.405    c0.219,0.093,0.442,0.179,0.664,0.267c0.227,0.09,0.452,0.185,0.682,0.269c2.746,1.008,5.665,1.554,8.586,1.655    c2.972,0.103,5.961-0.257,8.821-1.073c1.703-0.486,3.354-1.134,4.93-1.942c-1.479-6.71,0.25-12.937,0.327-13.209    c0.017-0.06,0.04-0.118,0.067-0.174c1.131-2.263,0.984-4.914,0.896-6.497c0-0.01,0.004-0.019-0.001-0.056v-1.708    c-2.035,0.501-3.789,0.731-5.271,0.731c-5.279,0-7.328-2.696-8.119-4.651c-0.207-0.512,0.04-1.095,0.552-1.302    c0.511-0.204,1.095,0.04,1.302,0.552c1.392,3.44,5.538,4.297,11.988,2.491c2.896-3.111,0.167-6.076-0.162-6.409    c-0.387-0.393-0.384-1.025,0.007-1.413c0.391-0.388,1.02-0.389,1.41,0.001c1.583,1.583,3.609,5.47,0.293,9.107v2.533    c1.003,8.15,2.853,11.542,2.872,11.576c0.102,0.182,0.146,0.394,0.123,0.601L46.6,48.963c2.704-2.401,4.94-5.315,6.556-8.589    c-0.371-5.84-2.057-10.975-2.074-11.028C51.013,29.143,51.013,28.921,51.081,28.716z M18.03,28.033c-2.966,0-3-1.918-3-2    c0-0.552,0.448-1,1-1c0.488,0,0.895,0.35,0.982,0.812c0.078,0.053,0.341,0.188,1.018,0.188c0.552,0,1,0.448,1,1    S18.582,28.033,18.03,28.033z M26.427,12.482c-0.175,0.35-0.528,0.552-0.895,0.552c-0.15,0-0.303-0.034-0.447-0.106    c-0.816-0.408-2.183-0.896-4.056-0.896c-0.552,0-1-0.448-1-1s0.448-1,1-1c1.792,0,3.503,0.383,4.951,1.107    C26.474,11.387,26.674,11.988,26.427,12.482z M16.314,35.334c0.386-0.396,1.019-0.402,1.415-0.018    c0.883,0.862,1.81,1.425,2.61,1.586c1.423,0.288,3.103,0.207,4.381-0.209c0.525-0.173,1.089,0.116,1.261,0.641    c0.171,0.525-0.116,1.089-0.641,1.26c-0.973,0.317-2.095,0.479-3.22,0.479c-0.738,0-1.477-0.069-2.177-0.21    c-1.504-0.303-2.794-1.317-3.612-2.115C15.936,36.363,15.929,35.729,16.314,35.334z M21.03,54.033c-0.552,0-1-0.448-1-1    c0-2.188-2.021-5.362-2.8-6.4c-0.332-0.442-0.242-1.069,0.2-1.4c0.442-0.331,1.069-0.242,1.4,0.2c0.13,0.174,3.2,4.305,3.2,7.6    C22.03,53.585,21.582,54.033,21.03,54.033z M23.026,45.074c-0.013,0-0.026,0-0.039,0c-1.611,0-2.92-1.179-3.626-1.815    c-0.411-0.37-0.443-1.002-0.074-1.413c0.37-0.41,1.002-0.442,1.413-0.074c0.705,0.634,1.487,1.28,2.304,1.302    c0.304-0.003,0.8-0.197,1.279-0.384c0.4-0.156,0.814-0.317,1.242-0.425c0.536-0.135,1.079,0.19,1.214,0.726    c0.135,0.535-0.19,1.079-0.726,1.214c-0.306,0.077-0.645,0.209-1.004,0.349C24.363,44.805,23.694,45.066,23.026,45.074z     M38.83,46.632c-0.779,1.041-2.8,4.22-2.8,6.4c0,0.552-0.448,1-1,1s-1-0.448-1-1c0-3.295,3.069-7.426,3.2-7.6    c0.332-0.441,0.958-0.531,1.399-0.2C39.071,45.563,39.161,46.19,38.83,46.632z M30.079,37.335    c0.171-0.526,0.734-0.813,1.261-0.641c1.278,0.416,2.957,0.497,4.381,0.209c0.801-0.161,1.728-0.724,2.611-1.586    c0.396-0.384,1.028-0.378,1.414,0.018c0.386,0.395,0.378,1.028-0.017,1.414c-0.818,0.798-2.108,1.812-3.612,2.115    c-0.7,0.141-1.439,0.21-2.176,0.21c-1.125,0-2.247-0.162-3.22-0.479C30.195,38.424,29.908,37.86,30.079,37.335z M29.06,42.99    c0.135-0.536,0.678-0.86,1.214-0.726c0.427,0.108,0.841,0.269,1.242,0.425c0.479,0.187,0.975,0.38,1.279,0.384    c0.005,0,0.011,0,0.016,0c0.777,0,1.588-0.671,2.288-1.302c0.41-0.37,1.042-0.338,1.413,0.074c0.37,0.41,0.336,1.042-0.074,1.412    c-0.707,0.636-2.017,1.815-3.627,1.815c-0.013,0-0.026,0-0.039,0c-0.668-0.008-1.336-0.269-1.982-0.521    c-0.359-0.14-0.698-0.272-1.004-0.349C29.25,44.069,28.925,43.525,29.06,42.99z M29.03,50.033c0-0.552,0.448-1,1-1s1,0.448,1,1    c0,1.654-1.346,3-3,3s-3-1.346-3-3c0-0.552,0.448-1,1-1s1,0.448,1,1c0,0.551,0.449,1,1,1C28.582,51.033,29.03,50.584,29.03,50.033    z M35.03,12.033c-1.871,0-3.237,0.486-4.053,0.895c-0.144,0.072-0.296,0.105-0.447,0.105c-0.367,0-0.72-0.202-0.895-0.553    c-0.247-0.494-0.047-1.095,0.447-1.342c1.446-0.723,3.157-1.105,4.947-1.105c0.552,0,1,0.448,1,1S35.582,12.033,35.03,12.033z     M38.03,28.033c-0.552,0-1-0.448-1-1s0.448-1,1-1c0.676,0,0.94-0.135,1.018-0.188c0.088-0.463,0.494-0.812,0.982-0.812    c0.552,0,1,0.448,1,1C41.03,26.114,40.996,28.033,38.03,28.033z"/><path d="M45.003,45.221c-0.317-0.652-1.058-2.361-1.788-5.383c-0.075,0.184-0.157,0.367-0.245,0.549    c-0.186,0.713-1.459,5.961-0.393,11.561c0.622-0.38,1.224-0.788,1.813-1.213L45.003,45.221z"/><path d="M3.016,22.932c-0.296-3.339,0.436-6.006,2.175-7.928c2.372-2.621,5.821-2.931,6.657-2.967    c2.524-0.909,7.872-4.604,9.265-5.581l0.66-3.961c-0.275-0.487-0.551-1.003-0.826-1.553C8.926,4.087,0.03,15.039,0.03,28.032    c0,2.927,0.454,5.75,1.291,8.404c0.541-3.621,1.373-6.48,1.661-7.407C2.185,26.306,2.801,23.691,3.016,22.932z"/></g></g><text x="0" y="70.961" fill="#000000" font-size="5px" font-weight="bold" font-family="'Helvetica Neue', Helvetica, Arial-Unicode, Arial, Sans-serif">Created by Prettycons</text><text x="0" y="75.961" fill="#000000" font-size="5px" font-weight="bold" font-family="'Helvetica Neue', Helvetica, Arial-Unicode, Arial, Sans-serif">from the Noun Project</text></svg>